# Blender v2.80 (sub 75) OBJ File: ''
# www.blender.org
mtllib suzanne.mtl
o Cube
v 0.890862 0.890877 -1.048189
v 0.891317 1.049029 -0.890405
v 1.048667 0.891660 -0.890423
v 0.890840 -1.048189 -0.890840
v 0.890840 -0.890840 -1.048189
v 1.048211 -0.890821 -0.890821
v 1.053635 0.900378 0.900378
v 0.896244 1.058147 0.901165
v 0.896244 0.901165 1.058147
v 1.048667 -0.890423 0.891660
v 0.891317 -0.890405 1.049029
v 0.890862 -1.048189 0.890877
v -0.890862 0.890877 -1.048189
v -1.048667 0.891660 -0.890423
v -0.891317 1.049029 -0.890405
v -1.048211 -0.890821 -0.890821
v -0.890840 -0.890840 -1.048189
v -0.890840 -1.048189 -0.890840
v -1.053635 0.900378 0.900378
v -0.896244 0.901165 1.058147
v -0.896244 1.058147 0.901165
v -0.890862 -1.048189 0.890877
v -0.891317 -0.890405 1.049029
v -1.048667 -0.890423 0.891660
vt 0.614293 0.760707
vt 0.385707 0.989293
vt 0.385707 0.760707
vt 0.385662 0.510697
vt 0.614303 0.739338
vt 0.385696 0.739304
vt 0.385652 0.260695
vt 0.614348 0.489346
vt 0.385652 0.489305
vt 0.614305 0.010652
vt 0.385654 0.239348
vt 0.385695 0.010652
vt 0.364303 0.510662
vt 0.135662 0.739303
vt 0.135696 0.510696
vt 0.864293 0.739293
vt 0.875000 0.739326
vt 0.864348 0.750000
vt 0.614293 0.750000
vt 0.625000 0.760707
vt 0.364337 0.739338
vt 0.375000 0.739316
vt 0.364316 0.750000
vt 0.135620 0.750000
vt 0.125000 0.739293
vt 0.864293 0.510707
vt 0.864348 0.500000
vt 0.875000 0.510674
vt 0.385707 0.750000
vt 0.375000 0.739293
vt 0.614337 0.510663
vt 0.614316 0.500000
vt 0.625000 0.510684
vt 0.385674 1.000000
vt 0.375000 0.989348
vt 0.375000 0.760707
vt 0.364293 0.500000
vt 0.614239 0.250000
vt 0.614348 0.260654
vt 0.635707 0.500000
vt 0.614346 0.239348
vt 0.385674 0.250000
vt 0.375000 0.239239
vt 0.375000 0.010598
vt 0.614293 0.989293
vt 0.625000 0.239239
vt 0.614293 0.000000
vt 0.625000 0.989348
vt 0.635707 0.739293
vt 0.635707 0.510707
vt 0.135707 0.500000
vt 0.385598 0.250000
vt 0.614326 0.250000
vt 0.614326 1.000000
vt 0.625000 0.010598
vt 0.385707 0.000000
vn 0.0000 -1.0000 -0.0000
vn -1.0000 -0.0003 -0.0003
vn 0.0000 -0.0051 1.0000
vn 0.0000 1.0000 -0.0051
vn 1.0000 -0.0003 -0.0003
vn 0.5763 0.5763 -0.5794
vn 0.5774 -0.5773 -0.5773
vn 0.5802 0.5759 0.5759
vn 0.5763 -0.5794 0.5763
vn -0.5763 0.5763 -0.5794
vn -0.5774 -0.5773 -0.5773
vn -0.5802 0.5759 0.5759
vn -0.5763 -0.5794 0.5763
vn -0.7071 -0.7071 -0.0000
vn 0.0000 -0.7071 -0.7071
vn 0.7070 -0.0000 -0.7072
vn -0.7071 -0.0054 0.7071
vn 0.7079 -0.0055 0.7063
vn -0.7070 -0.0000 -0.7072
vn 0.0000 0.7071 0.7071
vn 0.7071 0.7071 -0.0054
vn 0.0000 -0.7079 0.7063
vn -0.7079 0.7063 -0.0055
vn 0.0000 0.7063 -0.7079
vn 0.7070 -0.7072 -0.0000
vn 0.0000 -0.0000 -1.0000
vn -1.0000 -0.0028 -0.0028
vn 1.0000 -0.0028 -0.0028
vn -0.7070 -0.7072 -0.0000
vn 0.7071 -0.0000 -0.7071
vn -0.7079 -0.0055 0.7063
vn 0.7071 -0.0054 0.7071
vn -0.7071 -0.0000 -0.7071
vn 0.7079 0.7063 -0.0055
vn -0.7071 0.7071 -0.0054
vn 0.7071 -0.7071 -0.0000
usemtl Material
s off
f 4/1/1 22/2/1 18/3/1
f 24/4/2 14/5/2 16/6/2
f 11/7/3 20/8/3 23/9/3
f 15/10/4 8/11/4 2/12/4
f 3/13/5 10/14/5 6/15/5
f 1/16/6 2/17/6 3/18/6
f 4/1/7 5/19/7 6/20/7
f 7/21/8 8/22/8 9/23/8
f 10/14/9 11/24/9 12/25/9
f 13/26/10 14/27/10 15/28/10
f 16/6/11 17/29/11 18/30/11
f 19/31/12 20/32/12 21/33/12
f 22/2/13 23/34/13 24/35/13
f 22/2/14 16/36/14 18/3/14
f 18/3/15 5/19/15 4/1/15
f 6/15/16 1/37/16 3/13/16
f 23/9/17 19/31/17 24/4/17
f 11/7/18 7/38/18 9/39/18
f 13/26/19 16/40/19 14/27/19
f 21/41/20 9/42/20 8/11/20
f 2/12/21 7/43/21 3/44/21
f 12/45/22 23/34/22 22/2/22
f 15/10/23 19/46/23 21/41/23
f 2/12/24 13/47/24 15/10/24
f 12/45/25 6/20/25 10/48/25
f 13/26/26 5/49/26 17/50/26
f 4/1/1 12/45/1 22/2/1
f 24/4/27 19/31/27 14/5/27
f 11/7/3 9/39/3 20/8/3
f 15/10/4 21/41/4 8/11/4
f 3/13/28 7/21/28 10/14/28
f 22/2/29 24/35/29 16/36/29
f 18/3/15 17/29/15 5/19/15
f 6/15/30 5/51/30 1/37/30
f 23/9/31 20/8/31 19/31/31
f 11/7/32 10/52/32 7/38/32
f 13/26/33 17/50/33 16/40/33
f 21/41/20 20/53/20 9/42/20
f 2/12/34 8/11/34 7/43/34
f 12/45/22 11/54/22 23/34/22
f 15/10/35 14/55/35 19/46/35
f 2/12/24 1/56/24 13/47/24
f 12/45/36 4/1/36 6/20/36
f 13/26/26 1/16/26 5/49/26
